<svg xmlns="http://www.w3.org/2000/svg" xmlns:xlink="http://www.w3.org/1999/xlink" width="1366" zoomAndPan="magnify" viewBox="0 0 1024.5 576" height="768" preserveAspectRatio="xMidYMid meet" version="1.0"><defs><clipPath id="id1"><path d="M 0 0.140625 L 1024 0.140625 L 1024 575.859375 L 0 575.859375 Z M 0 0.140625 " clip-rule="nonzero"/></clipPath><clipPath id="id2"><path d="M 321.539062 225 L 569 225 L 569 401 L 321.539062 401 Z M 321.539062 225 " clip-rule="nonzero"/></clipPath><clipPath id="id3"><path d="M 444 251 L 703.289062 251 L 703.289062 419 L 444 419 Z M 444 251 " clip-rule="nonzero"/></clipPath><clipPath id="id4"><path d="M 335 147.183594 L 545 147.183594 L 545 219 L 335 219 Z M 335 147.183594 " clip-rule="nonzero"/></clipPath></defs><g clip-path="url(#id1)"><path fill="#ffffff" d="M 0 0.140625 L 1024.5 0.140625 L 1024.5 576.140625 L 0 576.140625 Z M 0 0.140625 " fill-opacity="1" fill-rule="nonzero"/><path fill="#fbfbfb" d="M 0 0.140625 L 1024.5 0.140625 L 1024.5 576.140625 L 0 576.140625 Z M 0 0.140625 " fill-opacity="1" fill-rule="nonzero"/></g><path fill="#766ac7" d="M 407.640625 403.25 C 397.539062 403.25 389.308594 411.476562 389.308594 421.574219 C 389.308594 431.671875 397.539062 439.898438 407.640625 439.898438 C 417.746094 439.898438 425.972656 431.671875 425.972656 421.574219 C 425.972656 411.476562 417.746094 403.25 407.640625 403.25 Z M 407.640625 403.25 " fill-opacity="1" fill-rule="nonzero"/><g clip-path="url(#id2)"><path fill="#766ac7" d="M 568.28125 225.09375 L 321.734375 225.09375 L 321.734375 342.058594 L 529.476562 400.707031 Z M 568.28125 225.09375 " fill-opacity="1" fill-rule="nonzero"/></g><path fill="#766ac7" d="M 396 369.945312 L 342.675781 354.898438 L 342.675781 418.230469 L 354.851562 418.230469 C 356.390625 394.554688 373.453125 375.027344 396 369.945312 Z M 396 369.945312 " fill-opacity="1" fill-rule="nonzero"/><path fill="#766ac7" d="M 407.640625 375.363281 C 382.152344 375.363281 361.410156 396.09375 361.410156 421.574219 C 361.410156 447.050781 382.152344 467.785156 407.640625 467.785156 C 433.132812 467.785156 453.875 447.050781 453.875 421.574219 C 453.875 396.09375 433.132812 375.363281 407.640625 375.363281 Z M 407.640625 446.585938 C 393.859375 446.585938 382.617188 435.347656 382.617188 421.574219 C 382.617188 407.796875 393.859375 396.5625 407.640625 396.5625 C 421.425781 396.5625 432.664062 407.796875 432.664062 421.574219 C 432.664062 435.347656 421.425781 446.585938 407.640625 446.585938 Z M 407.640625 446.585938 " fill-opacity="1" fill-rule="nonzero"/><path fill="#766ac7" d="M 596.246094 403.25 C 586.144531 403.25 577.914062 411.476562 577.914062 421.574219 C 577.914062 431.671875 586.144531 439.898438 596.246094 439.898438 C 606.351562 439.898438 614.578125 431.671875 614.578125 421.574219 C 614.578125 411.476562 606.351562 403.25 596.246094 403.25 Z M 596.246094 403.25 " fill-opacity="1" fill-rule="nonzero"/><g clip-path="url(#id3)"><path fill="#766ac7" d="M 697.808594 387.867188 C 695.9375 387.867188 694.464844 386.328125 694.464844 384.523438 L 694.464844 317.113281 L 641.675781 251.578125 L 569.285156 251.578125 L 535.230469 405.65625 C 535.027344 406.527344 534.492188 407.328125 533.691406 407.796875 C 533.15625 408.132812 532.621094 408.265625 532.019531 408.265625 C 531.683594 408.265625 531.347656 408.199219 531.082031 408.132812 L 444.574219 383.722656 C 453.671875 392.550781 459.558594 404.71875 460.429688 418.230469 L 543.460938 418.230469 C 545.199219 390.609375 568.214844 368.675781 596.246094 368.675781 C 624.347656 368.675781 647.296875 390.609375 649.035156 418.230469 L 703.09375 418.230469 L 703.09375 387.867188 Z M 680.214844 341.992188 C 680.214844 343.796875 678.742188 345.335938 676.867188 345.335938 L 577.378906 345.335938 C 575.574219 345.335938 574.035156 343.796875 574.035156 341.992188 L 574.035156 269.164062 C 574.035156 267.359375 575.574219 265.820312 577.378906 265.820312 L 633.246094 265.820312 C 634.25 265.820312 635.1875 266.289062 635.855469 267.089844 L 679.476562 321.261719 C 679.945312 321.863281 680.214844 322.597656 680.214844 323.332031 Z M 680.214844 341.992188 " fill-opacity="1" fill-rule="nonzero"/></g><path fill="#766ac7" d="M 580.726562 272.507812 L 580.726562 338.648438 L 673.523438 338.648438 L 673.523438 324.539062 L 631.640625 272.507812 Z M 580.726562 272.507812 " fill-opacity="1" fill-rule="nonzero"/><path fill="#766ac7" d="M 596.246094 375.363281 C 570.757812 375.363281 550.015625 396.09375 550.015625 421.574219 C 550.015625 447.050781 570.757812 467.785156 596.246094 467.785156 C 621.738281 467.785156 642.546875 447.050781 642.546875 421.574219 C 642.546875 396.09375 621.738281 375.363281 596.246094 375.363281 Z M 596.246094 446.585938 C 582.464844 446.585938 571.226562 435.347656 571.226562 421.574219 C 571.226562 407.796875 582.464844 396.5625 596.246094 396.5625 C 610.03125 396.5625 621.269531 407.796875 621.269531 421.574219 C 621.269531 435.347656 610.03125 446.585938 596.246094 446.585938 Z M 596.246094 446.585938 " fill-opacity="1" fill-rule="nonzero"/><g clip-path="url(#id4)"><path fill="#766ac7" d="M 544.597656 218.074219 L 544.597656 218.40625 L 337.59375 218.40625 C 336.386719 216.066406 335.71875 213.390625 335.71875 210.582031 C 335.71875 200.953125 343.546875 193.195312 353.113281 193.195312 C 354.785156 193.195312 356.324219 193.527344 357.796875 193.929688 C 357.796875 193.664062 357.730469 193.460938 357.730469 193.195312 C 357.730469 184.703125 363.820312 177.679688 371.914062 176.140625 C 371.847656 176.074219 371.847656 175.941406 371.847656 175.875 C 371.847656 162.097656 383.019531 150.929688 396.734375 150.929688 C 401.753906 150.929688 406.371094 152.46875 410.25 155.007812 C 413.796875 150.128906 419.484375 146.917969 425.972656 146.917969 C 434.269531 146.917969 441.296875 152.199219 444.039062 159.558594 C 447.117188 157.617188 450.660156 156.480469 454.542969 156.480469 C 463.707031 156.480469 471.335938 162.832031 473.34375 171.394531 C 476.820312 168.25 481.371094 166.3125 486.390625 166.3125 C 496.292969 166.3125 504.386719 173.800781 505.589844 183.363281 L 505.792969 183.363281 C 515.359375 183.363281 523.1875 191.121094 523.1875 200.75 C 523.1875 200.886719 523.121094 201.085938 523.121094 201.285156 C 524.457031 200.953125 525.796875 200.75 527.203125 200.75 C 536.835938 200.75 544.597656 208.507812 544.597656 218.074219 Z M 544.597656 218.074219 " fill-opacity="1" fill-rule="nonzero"/></g></svg>