<svg xmlns="http://www.w3.org/2000/svg" xmlns:xlink="http://www.w3.org/1999/xlink" width="1366" zoomAndPan="magnify" viewBox="0 0 1024.5 576" height="768" preserveAspectRatio="xMidYMid meet" version="1.0"><defs><clipPath id="id1"><path d="M 0 0.140625 L 1024 0.140625 L 1024 575.859375 L 0 575.859375 Z M 0 0.140625 " clip-rule="nonzero"/></clipPath><clipPath id="id2"><path d="M 195.464844 102.386719 L 829.214844 102.386719 L 829.214844 473.671875 L 195.464844 473.671875 Z M 195.464844 102.386719 " clip-rule="nonzero"/></clipPath></defs><g clip-path="url(#id1)"><path fill="#ffffff" d="M 0 0.140625 L 1024.5 0.140625 L 1024.5 576.140625 L 0 576.140625 Z M 0 0.140625 " fill-opacity="1" fill-rule="nonzero"/><path fill="#fbfbfb" d="M 0 0.140625 L 1024.5 0.140625 L 1024.5 576.140625 L 0 576.140625 Z M 0 0.140625 " fill-opacity="1" fill-rule="nonzero"/></g><g clip-path="url(#id2)"><path fill="#766ac7" d="M 785.554688 178.699219 C 785.554688 169.988281 782.066406 161.671875 775.933594 155.546875 C 769.800781 149.421875 761.476562 145.992188 752.808594 145.992188 C 744.144531 145.992188 735.761719 149.421875 729.628906 155.546875 C 723.496094 161.671875 720.066406 169.988281 720.066406 178.699219 C 720.066406 187.355469 723.496094 195.671875 729.628906 201.796875 C 735.761719 207.921875 744.144531 211.40625 752.808594 211.40625 C 761.476562 211.40625 769.800781 207.921875 775.933594 201.796875 C 782.066406 195.671875 785.554688 187.355469 785.554688 178.699219 Z M 698.234375 353.132812 C 698.234375 338.6875 692.496094 324.808594 682.199219 314.582031 C 672.015625 304.351562 658.117188 298.621094 643.601562 298.621094 C 629.144531 298.621094 615.300781 304.351562 605.007812 314.582031 C 594.765625 324.808594 589.027344 338.6875 589.027344 353.132812 C 589.027344 367.628906 594.765625 381.453125 605.007812 391.679688 C 615.300781 401.910156 629.144531 407.640625 643.601562 407.640625 C 658.0625 407.640625 671.960938 401.910156 682.199219 391.679688 C 692.441406 381.453125 698.234375 367.574219 698.234375 353.132812 Z M 479.875 265.914062 C 479.875 257.261719 476.445312 248.945312 470.3125 242.761719 C 464.125 236.636719 455.796875 233.210938 447.132812 233.210938 C 438.410156 233.210938 430.082031 236.636719 423.949219 242.761719 C 417.820312 248.945312 414.386719 257.261719 414.386719 265.914062 C 414.386719 274.570312 417.820312 282.941406 423.949219 289.066406 C 430.082031 295.195312 438.410156 298.621094 447.132812 298.621094 C 455.796875 298.621094 464.125 295.195312 470.253906 289.011719 C 476.386719 282.886719 479.875 274.570312 479.875 265.914062 Z M 327.066406 396.738281 C 327.066406 382.296875 321.269531 368.417969 311.03125 358.1875 C 300.789062 347.960938 286.949219 342.230469 272.433594 342.230469 C 257.972656 342.230469 244.078125 347.960938 233.835938 358.1875 C 223.597656 368.417969 217.859375 382.296875 217.859375 396.738281 C 217.859375 411.238281 223.597656 425.0625 233.835938 435.289062 C 244.078125 445.515625 257.972656 451.304688 272.433594 451.304688 C 286.949219 451.25 300.789062 445.515625 311.03125 435.289062 C 321.269531 425.0625 327.007812 411.238281 327.066406 396.738281 Z M 829.214844 178.699219 C 829.273438 203.257812 817.457031 226.296875 797.484375 240.628906 C 777.566406 255.011719 751.910156 258.890625 728.617188 251.023438 L 698.855469 300.53125 C 711.402344 313.625 718.882812 330.765625 719.894531 348.859375 C 720.964844 366.898438 715.5625 384.769531 704.648438 399.269531 C 693.734375 413.710938 678.035156 423.824219 660.371094 427.816406 C 642.648438 431.75 624.136719 429.277344 608.101562 420.847656 C 592.007812 412.417969 579.464844 398.59375 572.710938 381.789062 C 565.960938 364.988281 565.398438 346.332031 571.136719 329.136719 L 514.871094 301.039062 C 503.902344 322.335938 483.476562 337.226562 459.789062 341.160156 C 436.160156 345.152344 412.023438 337.789062 394.636719 321.269531 L 338.542969 358.582031 C 351.652344 381.171875 352.382812 408.820312 340.457031 432.03125 C 328.527344 455.183594 305.628906 470.75 279.636719 473.332031 C 253.699219 475.863281 228.210938 465.015625 212.007812 444.5625 C 195.804688 424.105469 191.132812 396.851562 199.628906 372.179688 C 208.070312 347.511719 228.546875 328.855469 253.867188 322.671875 C 279.242188 316.433594 306.023438 323.515625 324.925781 341.441406 L 381.078125 304.074219 C 368.476562 282.4375 367.292969 255.96875 377.929688 233.320312 C 388.5625 210.675781 409.660156 194.660156 434.417969 190.5 C 459.117188 186.285156 484.320312 194.492188 501.820312 212.417969 C 519.316406 230.34375 526.914062 255.6875 522.128906 280.300781 L 580.925781 309.636719 C 591.785156 293.902344 608.15625 282.886719 626.835938 278.671875 C 645.460938 274.457031 664.984375 277.4375 681.582031 286.988281 L 709.09375 241.191406 L 709.039062 241.191406 C 687.207031 225.90625 674.886719 200.335938 676.628906 173.699219 C 678.316406 147.0625 693.847656 123.292969 717.53125 110.984375 C 741.21875 98.675781 769.632812 99.578125 792.476562 113.402344 C 815.261719 127.28125 829.214844 152.007812 829.214844 178.699219 Z M 752.808594 167.796875 C 748.367188 167.796875 744.371094 170.4375 742.683594 174.542969 C 741.050781 178.585938 741.953125 183.25 745.046875 186.398438 C 748.195312 189.488281 752.921875 190.445312 756.972656 188.757812 C 761.082031 187.074219 763.726562 183.082031 763.726562 178.699219 C 763.726562 172.6875 758.832031 167.796875 752.808594 167.796875 Z M 283.347656 396.738281 C 283.347656 392.355469 280.703125 388.367188 276.652344 386.679688 C 272.546875 384.996094 267.875 385.949219 264.726562 389.039062 C 261.632812 392.1875 260.675781 396.851562 262.363281 400.953125 C 264.050781 405 268.046875 407.640625 272.433594 407.640625 C 278.453125 407.640625 283.347656 402.753906 283.347656 396.738281 Z M 305.179688 396.738281 C 305.179688 405.449219 301.746094 413.765625 295.613281 419.890625 C 289.480469 426.015625 281.15625 429.445312 272.433594 429.445312 C 263.769531 429.445312 255.441406 426.015625 249.308594 419.890625 C 243.175781 413.765625 239.6875 405.449219 239.6875 396.738281 C 239.6875 388.085938 243.175781 379.769531 249.308594 373.644531 C 255.441406 367.515625 263.769531 364.03125 272.433594 364.03125 C 281.15625 364.03125 289.480469 367.515625 295.613281 373.644531 C 301.746094 379.769531 305.179688 388.085938 305.179688 396.738281 Z M 654.519531 353.132812 C 654.519531 348.746094 651.875 344.757812 647.824219 343.070312 C 643.714844 341.386719 639.046875 342.339844 635.894531 345.433594 C 632.800781 348.578125 631.84375 353.242188 633.53125 357.347656 C 635.21875 361.390625 639.214844 364.03125 643.601562 364.03125 C 649.625 364.03125 654.519531 359.144531 654.519531 353.132812 Z M 676.40625 353.132812 C 676.40625 361.839844 672.917969 370.160156 666.785156 376.285156 C 660.652344 382.410156 652.324219 385.835938 643.601562 385.835938 C 634.9375 385.835938 626.613281 382.410156 620.480469 376.285156 C 614.347656 370.160156 610.914062 361.839844 610.914062 353.132812 C 610.914062 344.476562 614.347656 336.160156 620.480469 330.035156 C 626.613281 323.910156 634.9375 320.425781 643.601562 320.425781 C 652.324219 320.425781 660.652344 323.910156 666.785156 330.035156 C 672.917969 336.160156 676.40625 344.476562 676.40625 353.132812 Z M 458.046875 265.914062 C 458.046875 270.300781 455.402344 274.289062 451.296875 275.976562 C 447.246094 277.660156 442.519531 276.761719 439.421875 273.613281 C 436.273438 270.523438 435.371094 265.804688 437.058594 261.757812 C 438.75 257.65625 442.6875 255.011719 447.132812 255.011719 C 453.152344 255.011719 458.046875 259.902344 458.046875 265.914062 " fill-opacity="1" fill-rule="nonzero"/></g></svg>