<svg xmlns="http://www.w3.org/2000/svg" xmlns:xlink="http://www.w3.org/1999/xlink" width="1366" zoomAndPan="magnify" viewBox="0 0 1024.5 576" height="768" preserveAspectRatio="xMidYMid meet" version="1.0"><defs><clipPath id="id1"><path d="M 0 0.140625 L 1024 0.140625 L 1024 575.859375 L 0 575.859375 Z M 0 0.140625 " clip-rule="nonzero"/></clipPath><clipPath id="id2"><path d="M 319 116 L 706 116 L 706 504.140625 L 319 504.140625 Z M 319 116 " clip-rule="nonzero"/></clipPath><clipPath id="id3"><path d="M 426 72.140625 L 598 72.140625 L 598 244 L 426 244 Z M 426 72.140625 " clip-rule="nonzero"/></clipPath><clipPath id="id4"><path d="M 579 317 L 750.1875 317 L 750.1875 488.925781 L 579 488.925781 Z M 579 317 " clip-rule="nonzero"/></clipPath></defs><g clip-path="url(#id1)"><path fill="#ffffff" d="M 0 0.140625 L 1024.5 0.140625 L 1024.5 576.140625 L 0 576.140625 Z M 0 0.140625 " fill-opacity="1" fill-rule="nonzero"/><path fill="#fbfbfb" d="M 0 0.140625 L 1024.5 0.140625 L 1024.5 576.140625 L 0 576.140625 Z M 0 0.140625 " fill-opacity="1" fill-rule="nonzero"/></g><path fill="#297473" d="M 326.441406 310.121094 C 326.441406 207.449219 409.652344 124.210938 512.289062 124.210938 C 614.925781 124.210938 698.132812 207.449219 698.132812 310.121094 C 698.132812 412.792969 614.925781 496.03125 512.289062 496.03125 C 409.652344 496.03125 326.441406 412.792969 326.441406 310.121094 " fill-opacity="1" fill-rule="nonzero"/><g clip-path="url(#id2)"><path fill="#100f0d" d="M 460.414062 131.550781 L 460.492188 131.550781 Z M 526.03125 132.792969 L 519.132812 131.785156 L 512.160156 131.785156 L 512.132812 116.925781 L 520.789062 117.003906 L 528.125 118.0625 Z M 483.40625 133.980469 L 481.289062 119.277344 L 489.839844 118.140625 L 497.28125 118.140625 L 497.28125 133 L 490.332031 133 Z M 554.113281 137.339844 L 547.65625 135.195312 L 540.859375 134.214844 L 542.953125 119.484375 L 551.761719 120.878906 L 558.816406 123.230469 Z M 462.921875 138.582031 L 460.414062 131.550781 L 458.398438 124.417969 L 465.402344 122.378906 L 469.820312 136.253906 Z M 582.039062 145.996094 L 568.65625 140.234375 L 573.566406 126.875 L 581.058594 129.382812 L 587.902344 132.328125 Z M 428.925781 151.785156 L 422.699219 138.761719 L 429.699219 135.273438 L 436.519531 132.351562 L 442.382812 146.023438 Z M 607.226562 159.359375 L 601.386719 155.457031 L 595.058594 152.304688 L 601.699219 138.996094 L 609.292969 142.871094 L 615.46875 147.003906 Z M 404.5625 167.472656 L 396.324219 155.09375 L 402.523438 150.984375 L 406.628906 157.160156 L 402.523438 150.984375 L 408.4375 147.003906 L 416.964844 158.425781 L 410.761719 163.363281 Z M 630.710938 176.542969 L 619.34375 167.058594 L 628.539062 155.558594 L 640.214844 165.121094 Z M 382.992188 187.0625 L 372.996094 176.105469 L 378.960938 170.1875 L 384.773438 165.535156 L 394.050781 177.164062 L 388.261719 181.816406 Z M 650.160156 197.21875 L 645.511719 191.402344 L 640.265625 186.15625 L 651.222656 176.128906 L 657.109375 182.125 L 661.761719 187.914062 Z M 364.832031 208.949219 L 353.234375 199.644531 L 357.726562 194.039062 L 361.707031 188.070312 L 374.078125 196.3125 L 369.480469 203.132812 Z M 666.746094 220.835938 L 659.175781 208.226562 L 671.371094 200.34375 L 679.507812 213.1875 Z M 351.011719 233.730469 L 337.707031 227.089844 L 341.554688 219.492188 L 345.6875 213.316406 L 358.0625 221.558594 L 354.164062 227.402344 Z M 678.140625 246.292969 L 676.253906 239.753906 L 673.203125 233.628906 L 686.507812 226.960938 L 690.382812 235.050781 L 692.425781 242.207031 Z M 341.066406 260.453125 L 326.753906 256.394531 L 329.363281 247.816406 L 332.667969 241.148438 L 345.972656 247.816406 L 342.925781 253.890625 Z M 686.613281 273.996094 L 685.398438 266.65625 L 683.359375 259.523438 L 697.796875 256.113281 L 700.046875 264.226562 L 701.285156 271.566406 Z M 334.96875 288.648438 L 320.425781 286.527344 L 322.722656 271.617188 L 337.398438 274.046875 Z M 704.953125 302.394531 L 690.101562 302.394531 L 690.101562 295.417969 L 689.117188 288.492188 L 703.816406 286.398438 L 704.953125 294.953125 Z M 319.003906 318.289062 L 319.003906 302.523438 L 333.882812 302.523438 L 333.882812 318.160156 Z M 704.980469 332.292969 L 690.101562 332.292969 L 690.203125 323.636719 L 691.261719 316.296875 L 705.960938 318.390625 L 704.980469 325.316406 Z M 321.585938 341.726562 L 328.949219 340.667969 L 321.585938 341.675781 L 320.5 334.386719 L 335.046875 332.035156 L 336.261719 339.296875 Z M 698.78125 363.613281 L 684.289062 360.488281 L 685.707031 352.191406 L 687.773438 345.035156 L 702.0625 349.117188 L 700.019531 356.277344 L 692.863281 354.234375 L 699.996094 356.277344 Z M 331.09375 378.863281 L 329.207031 372.273438 L 326.160156 366.199219 L 339.464844 359.558594 L 343.339844 367.621094 L 345.378906 374.777344 Z M 688.5 391.964844 L 674.210938 387.882812 L 676.796875 379.300781 L 680.128906 372.660156 L 693.433594 379.300781 L 690.382812 385.425781 Z M 344.679688 407.109375 L 341.53125 400.777344 L 337.628906 394.9375 L 350.003906 386.691406 L 354.679688 393.800781 L 357.984375 400.464844 Z M 671.757812 419.332031 L 659.410156 411.683594 L 663.15625 405.429688 L 669.613281 409.148438 L 675.761719 413.285156 Z M 362.738281 432.535156 L 357.832031 426.335938 L 353.722656 420.15625 L 366.070312 411.914062 L 374.15625 424.007812 Z M 652.28125 444.140625 L 641.121094 434.34375 L 646.414062 427.832031 L 651.660156 422.5625 L 662.199219 433.078125 L 656.929688 438.324219 L 651.660156 433.078125 L 656.929688 438.351562 Z M 384 455.148438 L 378.757812 449.875 L 384 444.628906 L 378.757812 449.875 L 372.945312 445.25 L 382.734375 434.085938 L 389.269531 439.382812 L 394.515625 444.628906 Z M 629.054688 464.296875 L 619.625 452.953125 L 625.285156 448.222656 L 634.789062 459.671875 Z M 409.03125 473.625 L 402.445312 469.207031 L 396.660156 464.554688 L 405.933594 452.953125 L 417.300781 462.046875 Z M 603.453125 481.300781 L 595.1875 468.921875 L 602.316406 464.246094 L 608.957031 460.9375 L 615.597656 474.21875 L 609.292969 477.398438 Z M 429.828125 485.023438 L 433.160156 478.378906 L 429.828125 485.023438 L 423.34375 481.792969 L 429.3125 468.613281 L 435.949219 471.480469 L 433.160156 478.378906 Z M 574.652344 493.628906 L 568.785156 479.957031 L 576.328125 476.753906 L 583.382812 474.402344 L 588.082031 488.511719 L 581.238281 490.785156 Z M 466.097656 498.046875 L 451.605469 493.550781 L 456.308594 479.441406 L 470.257812 484.089844 Z M 545.148438 501.640625 L 540.445312 487.527344 L 548.945312 484.839844 L 556.308594 483.78125 L 558.402344 498.511719 L 551.605469 499.46875 Z M 496.761719 503.164062 L 489.839844 502.179688 L 482.890625 502.179688 L 482.890625 487.296875 L 491.519531 487.398438 L 498.855469 488.433594 Z M 513.863281 504.273438 L 511.773438 489.542969 L 520.324219 488.40625 L 527.761719 488.40625 L 527.761719 503.265625 L 520.761719 503.292969 L 513.863281 504.273438 " fill-opacity="1" fill-rule="nonzero"/></g><path fill="#aee5f1" d="M 590.332031 157.679688 C 590.332031 114.546875 555.40625 79.609375 512.289062 79.609375 C 469.171875 79.609375 434.246094 114.546875 434.246094 157.679688 C 434.246094 200.808594 469.171875 235.746094 512.289062 235.746094 C 555.40625 235.746094 590.332031 200.808594 590.332031 157.679688 " fill-opacity="1" fill-rule="nonzero"/><g clip-path="url(#id3)"><path fill="#100f0d" d="M 512.289062 87.050781 C 473.359375 87.050781 441.660156 118.734375 441.660156 157.679688 C 441.660156 196.621094 473.359375 228.332031 512.289062 228.332031 C 551.21875 228.332031 582.917969 196.621094 582.917969 157.679688 C 582.917969 118.734375 551.21875 87.050781 512.289062 87.050781 Z M 512.289062 243.191406 C 465.144531 243.191406 426.804688 204.839844 426.804688 157.679688 C 426.804688 110.542969 465.144531 72.167969 512.289062 72.167969 C 559.410156 72.167969 597.773438 110.542969 597.773438 157.679688 C 597.773438 204.839844 559.410156 243.191406 512.289062 243.191406 " fill-opacity="1" fill-rule="nonzero"/></g><path fill="#acacaa" d="M 512.289062 235.746094 C 486.402344 235.746094 463.515625 223.109375 449.332031 203.703125 C 450.46875 186.75 462.742188 180.523438 482.449219 172.433594 L 512.804688 159.796875 L 542.746094 172.433594 C 561.863281 180.496094 574.082031 187.136719 575.246094 203.703125 C 561.035156 223.109375 538.171875 235.746094 512.289062 235.746094 " fill-opacity="1" fill-rule="nonzero"/><path fill="#100f0d" d="M 457.058594 201.558594 C 470.414062 218.355469 490.847656 228.332031 512.289062 228.332031 C 533.703125 228.332031 554.140625 218.382812 567.519531 201.585938 C 565.789062 191.917969 558.21875 187.035156 539.851562 179.308594 L 512.78125 167.859375 L 485.320312 179.308594 C 466.203125 187.136719 458.710938 191.816406 457.058594 201.558594 Z M 512.289062 243.191406 C 485.191406 243.191406 459.40625 230.0625 443.339844 208.097656 L 441.710938 205.898438 L 441.917969 203.1875 C 443.441406 180.367188 461.835938 172.847656 479.636719 165.558594 L 512.832031 151.734375 L 545.640625 165.585938 C 565.710938 174.0625 581.1875 182.203125 582.660156 203.1875 L 582.867188 205.898438 L 581.238281 208.097656 C 565.167969 230.089844 539.386719 243.191406 512.289062 243.191406 " fill-opacity="1" fill-rule="nonzero"/><path fill="#ffffff" d="M 537.554688 139.847656 C 537.554688 155.535156 526.238281 168.273438 512.289062 168.273438 C 498.339844 168.273438 487.023438 155.535156 487.023438 139.847656 C 487.023438 124.136719 498.339844 111.394531 512.289062 111.394531 C 526.238281 111.394531 537.554688 124.136719 537.554688 139.847656 " fill-opacity="1" fill-rule="nonzero"/><path fill="#100f0d" d="M 512.289062 118.835938 C 502.445312 118.835938 494.4375 128.242188 494.4375 139.820312 C 494.4375 151.425781 502.445312 160.832031 512.289062 160.832031 C 522.132812 160.832031 530.140625 151.425781 530.140625 139.820312 C 530.140625 128.242188 522.132812 118.835938 512.289062 118.835938 Z M 512.289062 175.714844 C 494.257812 175.714844 479.582031 159.617188 479.582031 139.820312 C 479.582031 120.050781 494.257812 103.953125 512.289062 103.953125 C 530.320312 103.953125 544.992188 120.050781 544.992188 139.820312 C 544.992188 159.617188 530.320312 175.714844 512.289062 175.714844 " fill-opacity="1" fill-rule="nonzero"/><path fill="#f4d433" d="M 437.941406 403.078125 C 437.941406 359.945312 403.011719 325.007812 359.898438 325.007812 C 316.78125 325.007812 281.855469 359.945312 281.855469 403.078125 C 281.855469 446.207031 316.78125 481.144531 359.898438 481.144531 C 403.011719 481.144531 437.941406 446.207031 437.941406 403.078125 " fill-opacity="1" fill-rule="nonzero"/><path fill="#100f0d" d="M 359.898438 332.421875 C 320.964844 332.421875 289.292969 364.132812 289.292969 403.078125 C 289.292969 442.019531 320.964844 473.703125 359.898438 473.703125 C 398.828125 473.703125 430.527344 442.019531 430.527344 403.078125 C 430.527344 364.132812 398.828125 332.421875 359.898438 332.421875 Z M 359.898438 488.589844 C 312.777344 488.589844 274.414062 450.210938 274.414062 403.078125 C 274.414062 355.914062 312.777344 317.5625 359.898438 317.5625 C 407.042969 317.5625 445.378906 355.914062 445.378906 403.078125 C 445.378906 450.210938 407.042969 488.589844 359.898438 488.589844 " fill-opacity="1" fill-rule="nonzero"/><path fill="#ffffff" d="M 742.722656 403.078125 C 742.722656 359.945312 707.796875 325.007812 664.679688 325.007812 C 621.5625 325.007812 586.636719 359.945312 586.636719 403.078125 C 586.636719 446.207031 621.5625 481.144531 664.679688 481.144531 C 707.796875 481.144531 742.722656 446.207031 742.722656 403.078125 " fill-opacity="1" fill-rule="nonzero"/><g clip-path="url(#id4)"><path fill="#100f0d" d="M 664.679688 332.421875 C 625.75 332.421875 594.050781 364.132812 594.050781 403.078125 C 594.050781 442.019531 625.75 473.703125 664.679688 473.703125 C 703.609375 473.703125 735.308594 442.019531 735.308594 403.078125 C 735.308594 364.132812 703.609375 332.421875 664.679688 332.421875 Z M 664.679688 488.589844 C 617.535156 488.589844 579.199219 450.210938 579.199219 403.078125 C 579.199219 355.914062 617.535156 317.5625 664.679688 317.5625 C 711.824219 317.5625 750.164062 355.914062 750.164062 403.078125 C 750.164062 450.210938 711.824219 488.589844 664.679688 488.589844 " fill-opacity="1" fill-rule="nonzero"/></g><path fill="#100f0d" d="M 363.617188 440.261719 L 333.882812 440.261719 L 333.882812 425.378906 L 363.617188 425.378906 C 367.726562 425.378906 371.058594 422.042969 371.058594 417.9375 C 371.058594 413.851562 367.726562 410.519531 363.617188 410.519531 L 356.175781 410.519531 C 343.878906 410.519531 333.882812 400.492188 333.882812 388.191406 C 333.882812 375.890625 343.878906 365.890625 356.175781 365.890625 L 385.910156 365.890625 L 385.910156 380.773438 L 356.175781 380.773438 C 352.070312 380.773438 348.738281 384.109375 348.738281 388.191406 C 348.738281 392.300781 352.070312 395.632812 356.175781 395.632812 L 363.617188 395.632812 C 375.914062 395.632812 385.910156 405.632812 385.910156 417.9375 C 385.910156 430.238281 375.914062 440.261719 363.617188 440.261719 " fill-opacity="1" fill-rule="nonzero"/><path fill="#100f0d" d="M 367.335938 380.773438 L 352.457031 380.773438 L 352.457031 358.445312 L 367.335938 358.445312 L 367.335938 380.773438 " fill-opacity="1" fill-rule="nonzero"/><path fill="#100f0d" d="M 367.335938 447.679688 L 352.457031 447.679688 L 352.457031 425.378906 L 367.335938 425.378906 L 367.335938 447.679688 " fill-opacity="1" fill-rule="nonzero"/><path fill="#5dc57c" d="M 627.503906 414.214844 C 627.503906 393.695312 664.679688 354.726562 664.679688 354.726562 C 664.679688 354.726562 701.855469 393.695312 701.855469 414.214844 C 701.855469 434.757812 685.191406 451.402344 664.679688 451.402344 C 644.140625 451.402344 627.503906 434.757812 627.503906 414.214844 " fill-opacity="1" fill-rule="nonzero"/><path fill="#100f0d" d="M 664.679688 365.734375 C 651.453125 380.671875 634.945312 403.050781 634.945312 414.214844 C 634.945312 430.625 648.277344 443.957031 664.679688 443.957031 C 681.058594 443.957031 694.414062 430.625 694.414062 414.214844 C 694.414062 403.023438 677.90625 380.671875 664.679688 365.734375 Z M 664.679688 458.84375 C 640.085938 458.84375 620.089844 438.816406 620.089844 414.214844 C 620.089844 391.371094 655.277344 353.820312 659.308594 349.609375 L 664.679688 343.976562 L 670.054688 349.609375 C 674.058594 353.820312 709.269531 391.371094 709.269531 414.214844 C 709.269531 438.816406 689.273438 458.84375 664.679688 458.84375 " fill-opacity="1" fill-rule="nonzero"/><path fill="#100f0d" d="M 672.121094 488.589844 L 657.238281 488.589844 L 657.238281 406.796875 L 672.121094 406.796875 L 672.121094 488.589844 " fill-opacity="1" fill-rule="nonzero"/><path fill="#100f0d" d="M 519.730469 317.5625 L 504.847656 317.5625 L 504.847656 265.492188 L 519.730469 265.492188 L 519.730469 317.5625 " fill-opacity="1" fill-rule="nonzero"/><path fill="#100f0d" d="M 561.890625 361.988281 L 512.289062 327.847656 L 462.6875 361.988281 L 454.265625 349.738281 L 512.289062 309.8125 L 570.3125 349.738281 L 561.890625 361.988281 " fill-opacity="1" fill-rule="nonzero"/></svg>