<svg xmlns="http://www.w3.org/2000/svg" xmlns:xlink="http://www.w3.org/1999/xlink" width="1366" zoomAndPan="magnify" viewBox="0 0 1024.5 576" height="768" preserveAspectRatio="xMidYMid meet" version="1.0"><defs><clipPath id="id1"><path d="M 0 0.140625 L 1024 0.140625 L 1024 575.859375 L 0 575.859375 Z M 0 0.140625 " clip-rule="nonzero"/></clipPath><clipPath id="id2"><path d="M 225 59 L 799.402344 59 L 799.402344 517 L 225 517 Z M 225 59 " clip-rule="nonzero"/></clipPath></defs><g clip-path="url(#id1)"><path fill="#ffffff" d="M 0 0.140625 L 1024.5 0.140625 L 1024.5 576.140625 L 0 576.140625 Z M 0 0.140625 " fill-opacity="1" fill-rule="nonzero"/><path fill="#fbfbfb" d="M 0 0.140625 L 1024.5 0.140625 L 1024.5 576.140625 L 0 576.140625 Z M 0 0.140625 " fill-opacity="1" fill-rule="nonzero"/></g><path fill="#349370" d="M 576.796875 71.296875 L 591.773438 97.554688 L 587.859375 102.378906 C 583.898438 107.203125 577.796875 109.75 571.605469 109.113281 L 568.328125 108.792969 C 567.691406 108.75 567.097656 108.703125 566.460938 108.703125 C 561.863281 108.703125 557.355469 110.433594 553.941406 113.617188 C 545.75 121.128906 532.867188 119.851562 526.355469 110.84375 L 525.945312 110.339844 C 534.1875 97.097656 543.425781 82.308594 550.800781 70.65625 C 556.949219 61.011719 571.152344 61.375 576.796875 71.296875 Z M 576.796875 71.296875 " fill-opacity="1" fill-rule="nonzero"/><path fill="#349370" d="M 737.808594 176.601562 C 745.6875 171.597656 755.882812 177.648438 755.246094 186.976562 L 750.421875 254.832031 L 743.726562 235.21875 C 742.636719 231.988281 739.632812 229.9375 736.355469 229.9375 C 735.898438 229.9375 735.488281 229.9375 735.035156 230.03125 C 731.4375 230.621094 727.933594 228.710938 726.519531 225.386719 L 724.609375 220.972656 C 726.066406 217.425781 727.476562 213.691406 728.84375 209.6875 C 732.4375 199.175781 735.488281 187.933594 737.808594 176.601562 Z M 737.808594 176.601562 " fill-opacity="1" fill-rule="nonzero"/><path fill="#8bcb8f" d="M 750.421875 254.832031 L 743.183594 356.679688 C 723.425781 331.058594 698.613281 309.441406 670.164062 292.605469 C 667.25 290.875 664.289062 289.191406 661.285156 287.554688 L 661.332031 287.460938 L 667.703125 265.753906 C 686.824219 272.078125 708.128906 261.019531 724.609375 220.972656 L 726.519531 225.386719 C 727.203125 227.070312 728.476562 228.347656 729.980469 229.164062 C 731.484375 229.984375 733.257812 230.304688 735.035156 230.03125 C 735.488281 229.9375 735.898438 229.9375 736.355469 229.9375 C 739.632812 229.9375 742.636719 231.988281 743.726562 235.21875 Z M 750.421875 254.832031 " fill-opacity="1" fill-rule="nonzero"/><path fill="#8bcb8f" d="M 667.703125 265.753906 L 661.332031 287.460938 L 661.285156 287.554688 C 658.054688 285.777344 654.820312 284.09375 651.5 282.5 C 634.746094 274.128906 616.855469 267.394531 598.144531 262.339844 C 594.140625 261.203125 590.089844 260.203125 585.992188 259.246094 L 591.773438 239.632812 C 608.070312 245.230469 625.640625 239.269531 639.890625 215.101562 C 643.578125 208.867188 647.039062 201.40625 650.222656 192.621094 C 650.496094 191.847656 650.769531 191.074219 651.042969 190.253906 L 651.089844 190.253906 C 650.863281 191.027344 650.589844 191.847656 650.40625 192.621094 C 645.945312 207.777344 644.261719 220.425781 644.808594 230.710938 C 645.808594 250.054688 654.59375 261.203125 667.339844 265.617188 C 667.476562 265.664062 667.570312 265.707031 667.703125 265.753906 Z M 667.703125 265.753906 " fill-opacity="1" fill-rule="nonzero"/><path fill="#8bcb8f" d="M 575.429688 164.269531 C 560.042969 209.050781 570.921875 232.441406 591.773438 239.632812 L 585.992188 259.246094 C 581.984375 258.335938 577.980469 257.472656 573.925781 256.742188 C 568.417969 255.695312 562.820312 254.832031 557.175781 254.105469 C 552.121094 253.375 547.070312 252.828125 541.925781 252.375 L 522.121094 152.847656 L 522.121094 152.800781 L 505.140625 143.835938 C 505.507812 143.289062 508.101562 139.058594 512.0625 132.640625 C 515.75 126.679688 520.664062 118.851562 525.945312 110.339844 L 526.355469 110.84375 C 532.867188 119.851562 545.75 121.128906 553.941406 113.617188 C 557.355469 110.433594 561.863281 108.703125 566.460938 108.703125 C 567.097656 108.703125 567.691406 108.75 568.328125 108.792969 L 571.605469 109.113281 C 577.796875 109.75 583.898438 107.203125 587.859375 102.378906 L 591.773438 97.554688 L 597.964844 108.382812 L 600.785156 113.300781 L 600.785156 113.34375 C 590.632812 128.589844 581.484375 146.75 575.429688 164.269531 Z M 575.429688 164.269531 " fill-opacity="1" fill-rule="nonzero"/><path fill="#96b443" d="M 794.851562 512.414062 L 545.886719 512.414062 C 545.886719 499.03125 560.589844 472.636719 581.667969 465.628906 C 603.652344 458.257812 676.992188 468.953125 696.613281 456.34375 C 716.277344 443.785156 711.269531 418.984375 729.660156 406.558594 C 734.214844 403.464844 739.128906 401.78125 743.957031 400.960938 C 758.433594 398.457031 771.863281 404.101562 771.863281 404.101562 C 786.65625 436.320312 794.851562 472.730469 794.851562 512.414062 Z M 794.851562 512.414062 " fill-opacity="1" fill-rule="nonzero"/><path fill="#64bccc" d="M 771.863281 404.101562 C 771.863281 404.101562 758.433594 398.457031 743.957031 400.960938 C 739.128906 401.78125 734.214844 403.464844 729.660156 406.558594 C 711.269531 418.984375 716.277344 443.785156 696.613281 456.34375 C 676.992188 468.953125 603.652344 458.257812 581.667969 465.628906 C 560.589844 472.636719 545.886719 499.03125 545.886719 512.414062 L 524.214844 512.414062 L 524.214844 512.277344 C 524.214844 512.277344 539.011719 498.53125 533.003906 484.332031 C 526.949219 470.179688 506.871094 462.851562 494.761719 467.039062 C 488.480469 469.222656 484.566406 474.046875 482.199219 478.191406 C 479.921875 482.238281 476.007812 485.152344 471.410156 486.152344 C 467.90625 486.925781 463.714844 488.382812 459.9375 491.113281 C 451.335938 497.210938 448.238281 512.140625 448.238281 512.140625 L 448.238281 512.414062 L 293.6875 512.414062 L 293.6875 512.277344 C 293.6875 512.277344 291.777344 502.402344 298.96875 497.851562 C 306.160156 493.296875 314.71875 498.988281 321.183594 491.160156 C 327.648438 483.332031 317.996094 467.449219 328.148438 460.214844 C 338.300781 452.933594 367.253906 467.039062 383.460938 459.804688 C 399.621094 452.566406 399.574219 418.480469 383.460938 405.011719 C 367.34375 391.585938 349.136719 398.640625 340.621094 385.214844 C 332.109375 371.835938 338.4375 359.457031 328.238281 346.53125 C 325.871094 343.527344 323.097656 341.300781 320.273438 339.660156 C 311.304688 334.519531 301.519531 335.199219 300.609375 335.292969 C 307.710938 327.964844 315.265625 321.09375 323.234375 314.632812 C 348.496094 294.199219 377.953125 278.222656 410.273438 267.4375 C 409.863281 268.257812 404.71875 279.089844 400.621094 293.515625 C 394.429688 315.542969 390.699219 346.03125 410.273438 362.234375 C 443.140625 389.539062 482.882812 353.949219 503.230469 356.816406 C 523.535156 359.683594 519.890625 379.980469 549.300781 381.757812 C 578.753906 383.53125 592.183594 366.011719 616.765625 369.789062 C 641.300781 373.566406 656.234375 410.65625 688.601562 406.195312 C 719.875 401.871094 712.816406 380.027344 721.921875 370.199219 C 722.289062 369.832031 722.605469 369.515625 722.96875 369.195312 C 733.667969 359.914062 752.378906 369.421875 752.378906 369.421875 C 759.796875 380.347656 766.308594 391.90625 771.863281 404.101562 Z M 771.863281 404.101562 " fill-opacity="1" fill-rule="nonzero"/><path fill="#349370" d="M 752.378906 369.421875 C 752.378906 369.421875 733.667969 359.914062 722.96875 369.195312 C 722.605469 369.515625 722.285156 369.832031 721.921875 370.195312 C 712.816406 380.027344 719.875 401.871094 688.601562 406.195312 C 656.234375 410.65625 641.300781 373.566406 616.765625 369.789062 C 592.183594 366.011719 578.753906 383.53125 549.300781 381.757812 C 519.890625 379.980469 523.535156 359.683594 503.230469 356.816406 C 482.882812 353.949219 443.140625 389.539062 410.273438 362.234375 C 390.699219 346.03125 394.429688 315.542969 400.621094 293.515625 C 404.71875 279.089844 409.863281 268.257812 410.273438 267.4375 C 417.417969 264.980469 424.703125 262.84375 432.125 260.976562 C 443.6875 258.019531 455.613281 255.742188 467.769531 254.105469 C 479.96875 252.421875 492.441406 251.464844 505.140625 251.191406 C 507.601562 251.144531 510.105469 251.101562 512.609375 251.101562 C 522.488281 251.101562 532.273438 251.511719 541.925781 252.375 C 556.992188 253.695312 571.695312 255.96875 585.992188 259.246094 C 612.894531 265.4375 638.207031 274.945312 661.285156 287.554688 C 693.472656 305.027344 721.375 328.421875 743.183594 356.679688 C 746.414062 360.824219 749.464844 365.054688 752.378906 369.421875 Z M 752.378906 369.421875 " fill-opacity="1" fill-rule="nonzero"/><path fill="#e5d56d" d="M 667.703125 265.753906 C 667.570312 265.707031 667.476562 265.664062 667.339844 265.617188 C 647.449219 258.746094 637.203125 235.445312 651.089844 190.253906 C 651.773438 188.117188 652.5 185.933594 653.273438 183.703125 C 670.300781 134.234375 708.128906 79.214844 729.023438 86.402344 C 745.457031 92.046875 746.460938 134.597656 737.808594 176.601562 C 735.488281 187.933594 732.4375 199.175781 728.84375 209.6875 C 727.476562 213.691406 726.066406 217.425781 724.609375 220.972656 C 708.128906 261.019531 686.824219 272.082031 667.703125 265.753906 Z M 667.703125 265.753906 " fill-opacity="1" fill-rule="nonzero"/><path fill="#baca49" d="M 591.773438 239.632812 C 570.921875 232.441406 560.042969 209.050781 575.429688 164.269531 C 581.484375 146.75 590.632812 128.589844 600.785156 113.34375 L 600.785156 113.300781 C 616.628906 89.542969 634.882812 73.023438 647.582031 77.394531 C 668.480469 84.539062 666.429688 145.429688 651.042969 190.253906 C 635.609375 235.035156 612.667969 246.824219 591.773438 239.632812 Z M 591.773438 239.632812 " fill-opacity="1" fill-rule="nonzero"/><path fill="#f47a21" d="M 505.140625 143.835938 L 522.121094 152.800781 L 522.121094 152.847656 L 541.925781 252.375 C 532.273438 251.511719 522.488281 251.101562 512.609375 251.101562 C 510.105469 251.101562 507.601562 251.144531 505.140625 251.191406 L 497.128906 207.140625 C 495.492188 198.128906 487.660156 191.800781 478.832031 191.800781 C 477.738281 191.800781 476.597656 191.894531 475.460938 192.121094 C 465.308594 193.941406 458.574219 203.636719 460.4375 213.785156 L 467.769531 254.105469 C 455.613281 255.742188 443.6875 258.019531 432.125 260.976562 L 414.734375 173.507812 L 461.941406 121.035156 Z M 505.140625 143.835938 " fill-opacity="1" fill-rule="nonzero"/><path fill="#a7d276" d="M 533.003906 484.332031 C 539.011719 498.53125 524.214844 512.277344 524.214844 512.277344 L 524.214844 512.414062 L 448.238281 512.414062 L 448.238281 512.140625 C 448.238281 512.140625 451.335938 497.210938 459.9375 491.113281 C 463.714844 488.382812 467.90625 486.925781 471.410156 486.152344 C 476.007812 485.152344 479.921875 482.238281 482.199219 478.191406 C 484.566406 474.046875 488.480469 469.222656 494.761719 467.039062 C 506.871094 462.851562 526.949219 470.179688 533.003906 484.332031 Z M 533.003906 484.332031 " fill-opacity="1" fill-rule="nonzero"/><path fill="#ffa25a" d="M 497.128906 207.140625 L 505.140625 251.191406 C 492.441406 251.464844 479.96875 252.421875 467.769531 254.105469 L 460.4375 213.785156 C 458.574219 203.632812 465.308594 193.941406 475.460938 192.121094 C 476.597656 191.894531 477.738281 191.800781 478.832031 191.800781 C 487.660156 191.800781 495.492188 198.128906 497.128906 207.140625 Z M 497.128906 207.140625 " fill-opacity="1" fill-rule="nonzero"/><path fill="#5cc096" d="M 383.460938 459.804688 C 367.253906 467.039062 338.300781 452.933594 328.148438 460.214844 C 317.996094 467.449219 327.648438 483.332031 321.183594 491.160156 C 314.71875 498.988281 306.160156 493.296875 298.96875 497.851562 C 291.777344 502.402344 293.6875 512.277344 293.6875 512.277344 L 293.6875 512.414062 L 230.367188 512.414062 C 230.367188 446.289062 253.035156 389.355469 291.140625 345.578125 L 291.230469 345.441406 C 294.234375 341.980469 297.375 338.570312 300.5625 335.292969 C 300.5625 335.292969 300.5625 335.292969 300.609375 335.292969 C 301.519531 335.199219 311.304688 334.519531 320.273438 339.660156 C 323.097656 341.300781 325.871094 343.527344 328.238281 346.53125 C 338.4375 359.457031 332.109375 371.835938 340.621094 385.214844 C 349.136719 398.640625 367.34375 391.585938 383.460938 405.011719 C 399.574219 418.480469 399.621094 452.566406 383.460938 459.804688 Z M 383.460938 459.804688 " fill-opacity="1" fill-rule="nonzero"/><path fill="#a7d276" d="M 315.949219 299.292969 C 306.527344 304.117188 295.191406 302.296875 284.445312 292.511719 L 284.402344 292.511719 C 283.125 289.375 281.535156 286.1875 279.710938 283.003906 C 275.707031 276.039062 270.972656 270.078125 266.101562 265.4375 C 253.671875 237.992188 250.351562 204.136719 263.871094 197.261719 C 278.210938 189.9375 306.117188 215.832031 320.5 244 C 334.886719 272.171875 330.289062 291.96875 315.949219 299.292969 Z M 315.949219 299.292969 " fill-opacity="1" fill-rule="nonzero"/><path fill="#96b443" d="M 282.71875 330.785156 C 272.519531 336.65625 254.675781 324.824219 242.839844 304.300781 C 231.003906 283.777344 229.636719 262.386719 239.835938 256.515625 C 246.570312 252.648438 256.632812 256.46875 266.101562 265.4375 C 270.972656 270.078125 275.707031 276.039062 279.710938 283.003906 C 281.535156 286.1875 283.125 289.375 284.402344 292.511719 C 291.683594 309.761719 291.320312 325.824219 282.71875 330.785156 Z M 282.71875 330.785156 " fill-opacity="1" fill-rule="nonzero"/><g clip-path="url(#id2)"><path fill="#3a322b" d="M 776.230469 403.109375 C 776.082031 402.429688 775.804688 401.808594 775.367188 401.265625 C 767.859375 385.070312 758.660156 369.742188 747.839844 355.464844 L 759.785156 187.289062 C 760.210938 181.261719 757.253906 175.597656 752.0625 172.503906 C 749.46875 170.953125 746.570312 170.203125 743.6875 170.246094 C 750.992188 129.890625 749.765625 88.726562 730.496094 82.097656 C 711.363281 75.539062 685.296875 106.75 666.257812 142.734375 C 670.03125 109.898438 666.316406 78.992188 649.082031 73.066406 C 634.5625 68.101562 616.679688 83.019531 601.097656 104.726562 L 595.789062 95.410156 C 595.789062 95.410156 595.789062 95.40625 595.789062 95.40625 L 580.769531 69.050781 C 577.304688 62.972656 571.058594 59.246094 564.066406 59.082031 C 557.101562 58.957031 550.699219 62.34375 546.964844 68.242188 C 539.613281 79.855469 530.34375 94.683594 522.082031 107.957031 C 522.078125 107.960938 522.078125 107.964844 522.074219 107.96875 C 514.046875 120.863281 506.976562 132.273438 503.527344 137.847656 L 464.082031 117.011719 C 462.234375 116.035156 459.960938 116.445312 458.566406 117.996094 L 389.265625 195.035156 C 387.582031 196.902344 387.738281 199.777344 389.605469 201.460938 C 390.476562 202.242188 391.5625 202.625 392.644531 202.625 C 393.894531 202.625 395.132812 202.113281 396.03125 201.113281 L 412.0625 183.296875 L 426.832031 257.679688 C 389.128906 267.796875 354.53125 284.699219 324.917969 307.605469 L 321.792969 300.984375 C 328.300781 296.253906 332.433594 288.976562 333.515625 280.007812 C 334.828125 269.171875 331.722656 256 324.539062 241.929688 C 309.070312 211.628906 279.488281 184.152344 261.800781 193.195312 C 247.65625 200.414062 248.164062 227.558594 256.535156 253.277344 C 249.566406 249.984375 242.867188 249.503906 237.550781 252.570312 C 224.992188 259.820312 225.585938 283.539062 238.886719 306.574219 C 249.621094 325.160156 264.875 336.804688 276.96875 336.804688 C 278.25 336.804688 279.496094 336.648438 280.695312 336.378906 L 285.710938 345.0625 C 246.910156 390.964844 225.8125 449.1875 225.8125 512.414062 C 225.8125 514.925781 227.851562 516.964844 230.367188 516.964844 L 794.851562 516.964844 C 797.363281 516.964844 799.402344 514.925781 799.402344 512.414062 C 799.402344 473.519531 791.386719 436.53125 776.230469 403.109375 Z M 454.226562 507.863281 C 455.84375 503.328125 458.601562 497.625 462.558594 494.804688 C 465.28125 492.871094 468.597656 491.457031 472.410156 490.605469 C 478.230469 489.308594 483.25 485.589844 486.175781 480.40625 C 488.777344 475.804688 492.167969 472.757812 496.25 471.351562 C 506.257812 467.910156 523.835938 474.449219 528.800781 486.136719 C 532.671875 495.226562 525.03125 504.738281 522.164062 507.863281 Z M 537.1875 482.578125 C 530.003906 465.679688 507.285156 457.90625 493.289062 462.75 C 487.128906 464.875 481.929688 469.433594 478.257812 475.933594 C 476.566406 478.917969 473.789062 480.976562 470.4375 481.722656 C 465.421875 482.839844 461 484.746094 457.285156 487.390625 C 449.980469 492.59375 446.199219 502.628906 444.652344 507.863281 L 298.09375 507.863281 C 298.3125 505.71875 299.082031 503.148438 301.398438 501.675781 C 303.40625 500.402344 305.914062 500.363281 308.816406 500.316406 C 313.402344 500.242188 319.691406 500.148438 324.695312 494.058594 C 328.722656 489.160156 328.300781 482.714844 327.917969 477.023438 C 327.484375 470.472656 327.390625 466.332031 330.769531 463.910156 C 334.191406 461.464844 343.644531 463.007812 351.976562 464.363281 C 363.128906 466.183594 375.761719 468.242188 385.292969 463.960938 C 392.90625 460.542969 398.136719 452.28125 399.648438 441.300781 C 401.40625 428.5 397.976562 411.242188 386.347656 401.542969 C 377.707031 394.339844 368.410156 392.40625 360.933594 390.84375 C 352.578125 389.101562 347.691406 387.867188 344.464844 382.789062 C 340.996094 377.328125 340.367188 371.9375 339.703125 366.222656 C 338.902344 359.34375 337.996094 351.542969 331.832031 343.703125 C 325.503906 335.652344 316.902344 332.535156 310.234375 331.359375 C 314.667969 327.109375 319.226562 322.96875 323.992188 319.035156 C 324.382812 318.96875 324.777344 318.953125 325.148438 318.777344 C 326.238281 318.265625 327.003906 317.367188 327.410156 316.332031 C 349.277344 298.914062 374.394531 284.757812 402.210938 274.546875 C 394.222656 294.640625 379.332031 342.476562 407.351562 365.738281 C 431.09375 385.445312 458.421875 375.082031 478.375 367.507812 C 487.859375 363.90625 496.824219 360.5 502.570312 361.324219 C 509.96875 362.363281 513.390625 366.113281 517.71875 370.863281 C 523.554688 377.253906 530.8125 385.214844 549.035156 386.3125 C 564.628906 387.25 576.140625 383.054688 586.289062 379.347656 C 596.261719 375.707031 604.871094 372.558594 616.050781 374.285156 C 625.144531 375.679688 633.25 382.761719 641.828125 390.257812 C 653.101562 400.101562 665.71875 411.125 683.253906 411.125 C 685.179688 411.125 687.167969 410.992188 689.210938 410.710938 C 713.605469 407.351562 717.769531 393.46875 720.808594 383.335938 C 722.167969 378.804688 723.34375 374.890625 725.933594 372.636719 C 732.613281 366.847656 745.222656 371.035156 749.964844 373.328125 C 754.945312 380.921875 759.488281 388.824219 763.605469 396.992188 C 754.167969 395.089844 739.660156 394.320312 727.097656 402.800781 C 716.882812 409.695312 713.160156 419.625 709.5625 429.226562 C 706.148438 438.328125 702.925781 446.925781 694.167969 452.539062 C 684.203125 458.929688 655.878906 458.605469 630.882812 458.324219 C 610.117188 458.09375 590.515625 457.871094 580.226562 461.300781 C 559 468.382812 544.300781 492.179688 541.757812 507.871094 L 533.613281 507.871094 C 537.632812 501.636719 541.347656 492.359375 537.1875 482.578125 Z M 464.90625 212.980469 C 463.511719 205.328125 468.609375 197.972656 476.261719 196.582031 C 483.929688 195.199219 491.277344 200.285156 492.667969 207.933594 L 499.738281 246.832031 C 490.203125 247.1875 480.769531 247.9375 471.464844 249.070312 Z M 467.566406 258.617188 C 467.628906 258.625 467.679688 258.652344 467.746094 258.652344 C 468.015625 258.652344 468.285156 258.628906 468.566406 258.578125 C 468.722656 258.550781 468.847656 258.449219 468.996094 258.40625 C 483.113281 256.597656 497.671875 255.664062 512.609375 255.664062 C 522.421875 255.664062 532.066406 256.074219 541.535156 256.863281 C 541.660156 256.871094 541.773438 256.925781 541.902344 256.925781 C 541.96875 256.925781 542.042969 256.90625 542.113281 256.902344 C 556.4375 258.121094 570.355469 260.21875 583.796875 263.15625 C 584.089844 263.320312 584.351562 263.527344 584.6875 263.625 C 585.117188 263.753906 585.554688 263.816406 585.980469 263.816406 C 586.097656 263.816406 586.199219 263.769531 586.308594 263.761719 C 611.964844 269.589844 635.878906 278.441406 657.636719 289.992188 C 658.207031 290.835938 659.015625 291.53125 660.070312 291.839844 C 660.488281 291.964844 660.914062 292.015625 661.328125 292.023438 C 693.261719 309.625 720.382812 333.070312 741.402344 361.15625 C 734.554688 359.976562 726.316406 360.25 719.980469 365.75 C 715.394531 369.734375 713.71875 375.3125 712.105469 380.707031 C 709.261719 390.171875 706.582031 399.113281 687.984375 401.675781 C 671.378906 403.941406 659.953125 393.964844 647.839844 383.386719 C 638.65625 375.367188 629.160156 367.070312 617.453125 365.273438 C 603.960938 363.203125 593.402344 367.058594 583.183594 370.785156 C 573.414062 374.351562 563.320312 378.035156 549.601562 377.214844 C 535.070312 376.339844 529.917969 370.691406 524.46875 364.71875 C 519.796875 359.597656 514.507812 353.796875 503.859375 352.296875 C 495.78125 351.144531 486.226562 354.789062 475.160156 358.988281 C 455.332031 366.515625 432.859375 375.054688 413.1875 358.722656 C 385.648438 335.867188 409.808594 279.398438 413.820312 270.582031 C 430.859375 265.136719 448.820312 261.101562 467.566406 258.617188 Z M 594.882812 245.195312 C 597.625 245.796875 600.359375 246.140625 603.0625 246.140625 C 611.144531 246.140625 618.972656 243.433594 626.167969 238.082031 C 631.25 234.304688 635.9375 229.175781 640.265625 222.894531 C 639.945312 229.726562 640.394531 235.960938 641.664062 241.542969 C 644.570312 254.335938 651.664062 263.515625 662.214844 268.398438 L 658.527344 280.9375 C 637.691406 270.128906 615.253906 261.785156 591.6875 256.011719 Z M 715.226562 319.941406 C 700.476562 306.703125 684.179688 295.195312 666.707031 285.390625 L 670.878906 271.207031 C 673.179688 271.664062 675.480469 271.960938 677.765625 271.960938 C 686.320312 271.960938 694.691406 268.753906 702.429688 262.433594 C 710.859375 255.546875 718.417969 244.996094 725.050781 231.109375 C 727.8125 233.828125 731.746094 235.179688 735.777344 234.507812 C 737.351562 234.210938 738.90625 235.148438 739.429688 236.683594 L 745.824219 255.429688 L 739.457031 345 C 732 336.191406 723.96875 327.789062 715.226562 319.941406 Z M 747.402344 180.324219 C 749.65625 181.667969 750.890625 184.03125 750.703125 186.644531 L 747.453125 232.417969 C 745.09375 227.472656 739.785156 224.601562 734.253906 225.539062 C 732.765625 225.796875 731.296875 224.996094 730.699219 223.605469 L 729.535156 220.90625 C 730.777344 217.792969 731.992188 214.574219 733.15625 211.1875 C 736.503906 201.464844 739.449219 190.722656 741.8125 179.714844 C 743.652344 179.097656 745.644531 179.277344 747.402344 180.324219 Z M 724.921875 90.292969 C 725.84375 90.292969 726.714844 90.429688 727.53125 90.714844 C 743.492188 96.203125 741.929688 157.703125 724.546875 208.226562 C 716.800781 230.730469 707.417969 246.59375 696.664062 255.382812 C 689.226562 261.453125 681.433594 263.785156 673.445312 262.441406 L 698.304688 177.867188 C 699.015625 175.457031 697.636719 172.929688 695.21875 172.21875 C 692.824219 171.511719 690.28125 172.894531 689.570312 175.304688 L 664.804688 259.542969 C 657.5 255.714844 652.691406 249.019531 650.535156 239.523438 C 647.457031 225.980469 649.824219 207.699219 657.566406 185.195312 C 674.074219 137.265625 707.875 90.292969 724.921875 90.292969 Z M 643.214844 81.214844 C 644.238281 81.214844 645.207031 81.371094 646.121094 81.683594 C 662.078125 87.171875 662.398438 143.210938 646.722656 188.761719 C 639.761719 208.992188 631.019531 223.125 620.734375 230.777344 C 613.4375 236.199219 605.625 238.074219 597.46875 236.441406 L 619.929688 160.417969 C 620.640625 158.007812 619.265625 155.476562 616.851562 154.765625 C 614.449219 154.058594 611.910156 155.433594 611.199219 157.84375 L 588.871094 233.40625 C 581.648438 229.652344 576.769531 223.453125 574.402344 214.84375 C 570.996094 202.484375 572.804688 185.960938 579.765625 165.730469 C 594.535156 122.777344 626.261719 81.214844 643.214844 81.214844 Z M 554.652344 73.109375 C 556.65625 69.9375 560.09375 68.015625 563.851562 68.183594 C 567.621094 68.273438 570.988281 70.28125 572.859375 73.5625 L 586.265625 97.089844 L 584.3125 99.492188 C 581.335938 103.152344 576.742188 105.058594 572.070312 104.589844 L 568.792969 104.265625 C 562.246094 103.617188 555.703125 105.800781 550.859375 110.257812 C 547.921875 112.972656 543.964844 114.292969 539.972656 113.890625 C 536.78125 113.574219 533.855469 112.125 531.597656 109.910156 C 539.375 97.414062 547.839844 83.878906 554.652344 73.109375 Z M 526.699219 117.765625 C 530.195312 120.640625 534.472656 122.480469 539.058594 122.941406 C 539.828125 123.019531 540.597656 123.058594 541.359375 123.058594 C 547.132812 123.058594 552.738281 120.890625 557.019531 116.949219 C 559.953125 114.25 563.921875 112.914062 567.886719 113.316406 L 571.164062 113.640625 C 578.777344 114.394531 586.167969 111.359375 591.082031 105.546875 L 595.390625 113.105469 C 585.386719 128.648438 576.730469 146.515625 571.140625 162.769531 C 563.574219 184.761719 561.714844 203.09375 565.613281 217.253906 C 568.828125 228.925781 575.929688 237.484375 586.246094 242.277344 L 582.808594 253.917969 C 570.710938 251.320312 558.316406 249.449219 545.722656 248.222656 L 528.460938 161.320312 L 548.738281 172.035156 C 550.964844 173.207031 553.71875 172.355469 554.894531 170.136719 C 556.070312 167.914062 555.21875 165.160156 552.996094 163.984375 L 511.589844 142.109375 C 514.664062 137.144531 520.21875 128.179688 526.699219 117.765625 Z M 419.664062 174.847656 L 462.960938 126.714844 L 518.089844 155.835938 L 536.285156 247.445312 C 528.460938 246.90625 520.574219 246.5625 512.609375 246.5625 C 511.382812 246.5625 510.175781 246.628906 508.957031 246.640625 L 501.628906 206.3125 C 500.515625 200.210938 497.101562 194.910156 492.003906 191.378906 C 486.90625 187.851562 480.738281 186.515625 474.640625 187.625 C 468.542969 188.734375 463.238281 192.148438 459.707031 197.246094 C 456.179688 202.34375 454.84375 208.507812 455.949219 214.601562 L 462.441406 250.332031 C 453.382812 251.6875 444.460938 253.40625 435.6875 255.492188 Z M 265.9375 201.304688 C 276.601562 195.882812 302.546875 218.878906 316.425781 246.070312 C 322.785156 258.527344 325.566406 269.882812 324.476562 278.921875 C 323.777344 284.691406 321.488281 289.308594 317.8125 292.554688 L 296.316406 246.988281 C 295.242188 244.714844 292.527344 243.746094 290.253906 244.8125 C 287.980469 245.878906 287.011719 248.597656 288.078125 250.867188 L 309.710938 296.722656 C 302.832031 298.398438 295.359375 296 288.183594 289.707031 C 286.886719 286.730469 285.386719 283.726562 283.65625 280.730469 C 279.59375 273.695312 274.878906 267.675781 269.933594 262.886719 C 258.25 236.609375 256.226562 206.261719 265.9375 201.304688 Z M 246.773438 302.023438 C 235.472656 282.460938 235.242188 264.410156 242.101562 260.457031 C 243.148438 259.851562 244.394531 259.554688 245.800781 259.554688 C 253.601562 259.554688 266.203125 268.707031 275.773438 285.28125 C 284.925781 301.125 286.808594 315.964844 283.558594 323.140625 L 265.214844 291.378906 C 263.953125 289.207031 261.167969 288.453125 258.996094 289.714844 C 256.816406 290.972656 256.074219 293.757812 257.328125 295.929688 L 275.671875 327.6875 C 267.828125 326.910156 255.917969 317.867188 246.773438 302.023438 Z M 288.566406 331.804688 C 293.984375 325.90625 295.335938 315.5 292.710938 303.496094 C 296.925781 305.410156 301.214844 306.40625 305.4375 306.40625 C 308.222656 306.40625 310.972656 305.9375 313.664062 305.082031 L 317.605469 313.441406 C 315.039062 315.578125 312.472656 317.710938 309.988281 319.941406 C 305.648438 323.84375 301.519531 327.910156 297.488281 332.050781 C 297.28125 332.246094 297.078125 332.429688 296.910156 332.660156 C 295.269531 334.363281 293.621094 336.0625 292.027344 337.804688 Z M 293.070312 349.59375 C 293.207031 349.53125 293.351562 349.5 293.484375 349.421875 C 294.585938 348.785156 295.3125 347.757812 295.609375 346.613281 C 297.644531 344.296875 299.738281 342.03125 301.863281 339.789062 C 305.128906 339.675781 317.300781 339.925781 324.679688 349.316406 C 329.253906 355.144531 329.910156 360.761719 330.667969 367.269531 C 331.386719 373.445312 332.199219 380.445312 336.785156 387.664062 C 342.234375 396.234375 350.800781 398.019531 359.082031 399.746094 C 366.234375 401.234375 373.625 402.777344 380.519531 408.523438 C 388.148438 414.882812 392.308594 427.851562 390.632812 440.054688 C 389.5625 447.863281 386.257812 453.546875 381.570312 455.648438 C 374.523438 458.808594 363.324219 456.976562 353.449219 455.371094 C 341.914062 453.492188 331.945312 451.867188 325.476562 456.5 C 317.804688 461.988281 318.378906 470.652344 318.839844 477.617188 C 319.132812 482.007812 319.402344 486.160156 317.664062 488.273438 C 315.4375 490.984375 313.054688 491.140625 308.675781 491.214844 C 305.117188 491.269531 300.699219 491.335938 296.519531 493.992188 C 290.734375 497.660156 289.226562 503.570312 288.964844 507.863281 L 234.953125 507.863281 C 235.945312 446.289062 257.105469 391.949219 293.070312 349.59375 Z M 551.015625 507.863281 C 553.765625 495.578125 566.21875 475.5625 583.117188 469.925781 C 591.953125 466.976562 611.695312 467.199219 630.785156 467.417969 C 658.335938 467.726562 686.828125 468.054688 699.089844 460.195312 C 710.402344 452.949219 714.488281 442.039062 718.097656 432.414062 C 721.335938 423.769531 724.398438 415.605469 732.203125 410.335938 C 745.972656 401.039062 763.75 406.082031 768.734375 407.789062 C 782.132812 438.015625 789.679688 471.695312 790.261719 507.867188 L 551.015625 507.867188 Z M 551.015625 507.863281 " fill-opacity="1" fill-rule="nonzero"/></g></svg>