<svg xmlns="http://www.w3.org/2000/svg" xmlns:xlink="http://www.w3.org/1999/xlink" width="1366" zoomAndPan="magnify" viewBox="0 0 1024.5 576" height="768" preserveAspectRatio="xMidYMid meet" version="1.0"><defs><clipPath id="id1"><path d="M 0 0.140625 L 1024 0.140625 L 1024 575.859375 L 0 575.859375 Z M 0 0.140625 " clip-rule="nonzero"/></clipPath><clipPath id="id2"><path d="M 282 58.039062 L 671 58.039062 L 671 447 L 282 447 Z M 282 58.039062 " clip-rule="nonzero"/></clipPath><clipPath id="id3"><path d="M 282 58.039062 L 507 58.039062 L 507 283 L 282 283 Z M 282 58.039062 " clip-rule="nonzero"/></clipPath><clipPath id="id4"><path d="M 517 293 L 742.5 293 L 742.5 518.539062 L 517 518.539062 Z M 517 293 " clip-rule="nonzero"/></clipPath><clipPath id="id5"><path d="M 353 129 L 742 129 L 742 518.539062 L 353 518.539062 Z M 353 129 " clip-rule="nonzero"/></clipPath></defs><g clip-path="url(#id1)"><path fill="#ffffff" d="M 0 0.140625 L 1024.5 0.140625 L 1024.5 4077.140625 L 0 4077.140625 Z M 0 0.140625 " fill-opacity="1" fill-rule="nonzero"/><path fill="#ffffff" d="M 0 0.140625 L 1024.5 0.140625 L 1024.5 576.140625 L 0 576.140625 Z M 0 0.140625 " fill-opacity="1" fill-rule="nonzero"/><path fill="#fbfbfb" d="M 0 0.140625 L 1024.5 0.140625 L 1024.5 576.140625 L 0 576.140625 Z M 0 0.140625 " fill-opacity="1" fill-rule="nonzero"/></g><g clip-path="url(#id2)"><path fill="#b0cf81" d="M 282 293.910156 L 350.996094 293.910156 C 352.53125 333.777344 368.375 370.0625 393.929688 397.664062 L 345.375 446.730469 C 307.042969 406.863281 283.53125 353.199219 282 293.910156 Z M 517.617188 58.292969 L 517.617188 127.292969 C 557.480469 128.824219 593.769531 144.667969 621.367188 170.226562 L 670.433594 121.160156 C 630.566406 83.335938 576.902344 59.828125 517.617188 58.292969 Z M 517.617188 58.292969 " fill-opacity="1" fill-rule="nonzero"/></g><g clip-path="url(#id3)"><path fill="#ddeb00" d="M 353.554688 121.671875 C 393.417969 83.335938 447.082031 59.828125 506.371094 58.292969 L 506.371094 127.292969 C 466.503906 128.824219 430.21875 144.667969 402.617188 170.226562 Z M 282 282.667969 L 350.996094 282.667969 C 352.53125 242.800781 368.375 206.511719 393.929688 178.914062 L 345.375 129.847656 C 307.042969 169.714844 283.53125 223.378906 282 282.667969 Z M 349.464844 125.757812 Z M 349.464844 125.757812 " fill-opacity="1" fill-rule="nonzero"/></g><g clip-path="url(#id4)"><path fill="#eac445" d="M 670.433594 454.90625 C 630.566406 493.238281 576.902344 516.75 517.617188 518.28125 L 517.617188 449.285156 C 557.480469 447.75 593.769531 431.90625 621.367188 406.351562 Z M 672.988281 293.910156 C 671.457031 333.777344 655.613281 370.0625 630.058594 397.664062 L 679.121094 446.730469 C 716.945312 406.863281 740.964844 353.199219 742.5 293.910156 Z M 672.988281 293.910156 " fill-opacity="1" fill-rule="nonzero"/></g><g clip-path="url(#id5)"><path fill="#4aa49c" d="M 353.554688 454.90625 L 402.617188 405.839844 C 430.21875 431.394531 466.503906 447.238281 506.371094 448.773438 L 506.371094 518.28125 C 447.082031 516.75 393.417969 493.238281 353.554688 454.90625 Z M 678.613281 129.847656 L 629.546875 178.914062 C 655.101562 206.511719 670.945312 242.800781 672.476562 282.667969 L 741.988281 282.667969 C 740.453125 223.378906 716.945312 169.714844 678.613281 129.847656 Z M 678.613281 129.847656 " fill-opacity="1" fill-rule="nonzero"/></g></svg>